<svg xmlns="http://www.w3.org/2000/svg" xmlns:xlink="http://www.w3.org/1999/xlink" width="256" height="256" viewBox="0 0 256 256"><defs><filter id="b" width="105.5%" height="105.5%" x="-2.7%" y="-2%" filterUnits="objectBoundingBox"><feOffset dy="2" in="SourceAlpha" result="shadowOffsetOuter1"/><feGaussianBlur in="shadowOffsetOuter1" result="shadowBlurOuter1" stdDeviation="2"/><feComposite in="shadowBlurOuter1" in2="SourceAlpha" operator="out" result="shadowBlurOuter1"/><feColorMatrix in="shadowBlurOuter1" result="shadowMatrixOuter1" values="0 0 0 0 0 0 0 0 0 0 0 0 0 0 0 0 0 0 0.15 0"/><feMorphology in="SourceAlpha" operator="dilate" radius=".5" result="shadowSpreadOuter2"/><feOffset in="shadowSpreadOuter2" result="shadowOffsetOuter2"/><feComposite in="shadowOffsetOuter2" in2="SourceAlpha" operator="out" result="shadowOffsetOuter2"/><feColorMatrix in="shadowOffsetOuter2" result="shadowMatrixOuter2" values="0 0 0 0 0.270588235 0 0 0 0 0.117647059 0 0 0 0 0.0666666667 0 0 0 0.06 0"/><feMerge><feMergeNode in="shadowMatrixOuter1"/><feMergeNode in="shadowMatrixOuter2"/></feMerge></filter><path id="a" d="M76.916556,-2.07168062e-15 L179.083444,3.10752092e-15 C205.829006,-1.80555915e-15 215.527593,2.78476833 225.305371,8.01398111 C235.083149,13.2431939 242.756806,20.9168511 247.986019,30.6946289 C253.215232,40.4724067 256,50.1709938 256,76.916556 L256,179.083444 C256,205.829006 253.215232,215.527593 247.986019,225.305371 C242.756806,235.083149 235.083149,242.756806 225.305371,247.986019 C215.527593,253.215232 205.829006,256 179.083444,256 L76.916556,256 C50.1709938,256 40.4724067,253.215232 30.6946289,247.986019 C20.9168511,242.756806 13.2431939,235.083149 8.01398111,225.305371 C2.78476833,215.527593 6.01853049e-16,205.829006 -1.03584031e-15,179.083444 L2.07168062e-15,76.916556 C-1.2037061e-15,50.1709938 2.78476833,40.4724067 8.01398111,30.6946289 C13.2431939,20.9168511 20.9168511,13.2431939 30.6946289,8.01398111 C40.4724067,2.78476833 50.1709938,1.2037061e-15 76.916556,-2.07168062e-15 Z"/></defs><g fill="none" fill-rule="evenodd"><use xlink:href="#a" fill="#000" filter="url(#b)"/><use xlink:href="#a" fill="#FFF" fill-opacity=".8"/><path fill="#ED5F00" fill-opacity=".87" fill-rule="nonzero" d="M62.6844926,32.8549472 C62.2583563,28.5652854 60.4277177,25.2272172 57.192577,22.8407426 C53.9574363,20.454268 49.5807994,19.2610307 44.0626665,19.2610307 C40.2984619,19.2610307 37.1147849,19.7918979 34.5116355,20.8536321 C31.9084861,21.9153664 29.9285889,23.3660611 28.5719438,25.2057162 C27.2152987,27.0453713 26.5264338,29.1406805 26.5053489,31.4916437 C26.4626243,33.4447687 26.8869573,35.1511175 27.7783481,36.61069 C28.6697388,38.0702626 29.9180464,39.3238414 31.523271,40.3714267 C33.1284956,41.4190119 34.9786932,42.3191417 37.0738636,43.0718162 C39.1690341,43.8244906 41.3990368,44.4671631 43.7638716,44.9998335 L53.565008,47.3435835 C58.3235307,48.4089244 62.6914284,49.8329856 66.6687012,51.615767 C70.6459739,53.3985485 74.0976507,55.5879073 77.0237316,58.1838434 C79.9498125,60.7797796 82.2207364,63.8355602 83.8365035,67.3511852 C85.4522705,70.8668102 86.2709739,74.8937433 86.2926136,79.4319846 C86.2709739,86.0936945 84.5805775,91.867759 81.2214244,96.7541781 C77.8622714,101.640597 73.0310613,105.422557 66.7277943,108.100059 C60.4245273,110.77756 52.82676,112.116311 43.9344926,112.116311 C35.1204612,112.116311 27.4588845,110.770486 20.9497625,108.078835 C14.4406405,105.387185 9.36972878,101.386885 5.73702725,96.0779363 C2.10432573,90.7689875 0.19198331,84.1832941 0,76.3208563 L22.3297119,76.3208563 C22.5782915,79.9718683 23.6364191,83.0154419 25.5040949,85.4515769 C27.3717707,87.887712 29.8699119,89.7165472 32.9985185,90.9380826 C36.1271251,92.159618 39.6872781,92.7703857 43.6789773,92.7703857 C47.5924405,92.7703857 50.990989,92.2056718 53.8746227,91.076244 C56.7582564,89.9468162 58.9990789,88.373635 60.5970903,86.3567006 C62.1951017,84.3397661 63.0046498,82.0029519 63.0257346,79.346258 C63.0046498,76.8959739 62.2750022,74.8381181 60.836792,73.1726907 C59.3985818,71.5072632 57.3050759,70.0868086 54.5562744,68.911327 C51.8074729,67.7358454 48.4516491,66.6687012 44.4888028,65.7098944 L32.5994318,62.769387 C23.3947754,60.5321711 16.1308982,57.0290305 10.8078003,52.2599654 C5.48470237,47.4909002 2.83397328,41.0794345 2.85561301,33.0255682 C2.83397328,26.4276678 4.61120605,20.6552679 8.18731135,15.7083685 C11.7634166,10.7614691 16.674666,6.90668279 22.9210593,4.14400968 C29.1674527,1.38133656 36.2715288,2.27373675e-13 44.2332875,2.27373675e-13 C52.3293235,2.27373675e-13 59.3994141,1.38494318 65.4435591,4.15482955 C71.4877042,6.92471591 76.2018377,10.7795022 79.5859597,15.7191883 C82.9700817,20.6588745 84.7084739,26.3707941 84.8011364,32.8549472 L62.6844926,32.8549472 Z" transform="translate(85 72)"/></g></svg>